<svg width="21" height="21" viewBox="0 0 21 21" fill="none" xmlns="http://www.w3.org/2000/svg">
<path d="M14.2489 1.81525e-07C13.195 -0.000241523 12.1556 0.246406 11.2141 0.720178C10.2726 1.19395 9.45519 1.88167 8.82734 2.72823C8.19949 3.5748 7.77867 4.55666 7.5986 5.59513C7.41854 6.63361 7.48423 7.69983 7.79042 8.70835L0 16.4988V20.9984H4.49966L12.2901 13.208C13.2184 13.4898 14.1966 13.5682 15.158 13.4377C16.1194 13.3073 17.0413 12.9711 17.861 12.4521C18.6807 11.9331 19.3789 11.2435 19.908 10.4303C20.4371 9.61708 20.7846 8.69936 20.927 7.73967C21.0693 6.77998 21.0031 5.80089 20.7328 4.86912C20.4625 3.93735 19.9945 3.0748 19.3607 2.34025C18.7269 1.6057 17.9422 1.01642 17.0601 0.612562C16.1779 0.208709 15.2191 -0.000224814 14.2489 1.81525e-07ZM14.2489 11.9991C13.7326 11.9988 13.2191 11.9225 12.7251 11.7726L11.8649 11.5116L11.2297 12.1468L8.84409 14.5324L7.80992 13.499L6.7495 14.5594L7.78367 15.5936L6.59426 16.783L5.56008 15.7488L4.49966 16.8092L5.53384 17.8434L3.87871 19.4985H1.49989V17.1197L8.85084 9.76877L9.48679 9.13357L9.22581 8.27338C8.90527 7.21671 8.92609 6.08586 9.28532 5.0417C9.64455 3.99754 10.3239 3.09324 11.2267 2.45744C12.1295 1.82163 13.2098 1.4867 14.314 1.50029C15.4181 1.51387 16.4898 1.87528 17.3767 2.5331C18.2636 3.19092 18.9205 4.11166 19.2539 5.16434C19.5874 6.21702 19.5804 7.34804 19.2339 8.39651C18.8875 9.44498 18.2192 10.3575 17.3243 11.0043C16.4293 11.6511 15.3532 11.9992 14.2489 11.9991Z" fill="black"/>
<path d="M14.9999 7.49947C15.8283 7.49947 16.4998 6.82795 16.4998 5.99958C16.4998 5.17122 15.8283 4.49969 14.9999 4.49969C14.1715 4.49969 13.5 5.17122 13.5 5.99958C13.5 6.82795 14.1715 7.49947 14.9999 7.49947Z" fill="#333333"/>
</svg>