<svg width="20" height="20" viewBox="0 0 20 20" fill="none" xmlns="http://www.w3.org/2000/svg">
<path d="M10.2434 5.29C10.4347 5.11 10.6643 5 10.913 5C11.1712 5 11.3912 5.11 11.5921 5.29C11.7738 5.5 11.8695 5.74 11.8695 6C11.8695 6.27 11.7738 6.5 11.5921 6.71C11.3912 6.9 11.1712 7 10.913 7C10.6643 7 10.4347 6.9 10.2434 6.71C10.0617 6.5 9.95645 6.27 9.95645 6C9.95645 5.74 10.0617 5.5 10.2434 5.29ZM7.8521 9.97C7.8521 9.97 9.92776 8.25 10.6834 8.18C11.3912 8.12 11.2478 8.97 11.1808 9.41L11.1712 9.47C11.0373 10 10.8747 10.64 10.7121 11.25C10.3486 12.64 9.99471 14 10.0808 14.25C10.1765 14.59 10.7695 14.16 11.1999 13.86C11.2573 13.82 11.3051 13.78 11.353 13.75C11.353 13.75 11.4295 13.67 11.506 13.78C11.5251 13.81 11.5443 13.84 11.5634 13.86C11.6495 14 11.6973 14.05 11.5825 14.13L11.5443 14.15C11.3338 14.3 10.4347 14.96 10.0712 15.2C9.67906 15.47 8.17732 16.37 8.40689 14.62C8.60776 13.39 8.87558 12.33 9.08602 11.5C9.47819 10 9.65036 9.32 8.77036 9.91C8.41645 10.13 8.20602 10.27 8.08167 10.36C7.97645 10.44 7.96689 10.44 7.89993 10.31L7.87123 10.25L7.82341 10.17C7.75645 10.07 7.75645 10.06 7.8521 9.97ZM19.5217 10C19.5217 15.5 15.2173 20 9.95645 20C4.69558 20 0.391235 15.5 0.391235 10C0.391235 4.5 4.69558 0 9.95645 0C15.2173 0 19.5217 4.5 19.5217 10ZM17.6086 10C17.6086 5.58 14.1843 2 9.95645 2C5.72863 2 2.30428 5.58 2.30428 10C2.30428 14.42 5.72863 18 9.95645 18C14.1843 18 17.6086 14.42 17.6086 10Z" fill="black"/>
</svg>
